<?xml version="1.0" encoding="UTF-8" standalone="no"?> <svg xmlns:inkscape="http://www.inkscape.org/namespaces/inkscape" xmlns:sodipodi="http://sodipodi.sourceforge.net/DTD/sodipodi-0.dtd" xmlns="http://www.w3.org/2000/svg" xmlns:svg="http://www.w3.org/2000/svg" xml:space="preserve" x="0" y="0" version="1.1" viewBox="0 0 576.45 162.893" fill="#000000" data-color-origin="#000000" data-color-type="fill" id="svg12" width="576.45001" height="162.89301"><defs id="defs12"></defs> <path fill="#1e89ca" d="M 96.975,25.095 C 96.343,24.766 81.218,17.03 57.14,17.03 c -24.077,0 -39.202,7.736 -39.836,8.065 l -3.009,1.569 0.163,3.921 c 0.108,2.521 0.254,5.01 0.442,7.47 3.144,-1.526 5.606,-2.492 9.271,-3.88 5.268,-2.061 17.003,-5.792 32.968,-5.792 15.965,0 27.7,3.731 32.967,5.792 3.666,1.389 6.129,2.354 9.271,3.88 0.188,-2.46 0.336,-4.949 0.439,-7.47 l 0.168,-3.921 z" class=" bl-fill-0" data-color-origin="#1e89ca" data-color-type="fill" id="path1"></path> <path d="M 112.579,16.149 C 111.919,15.489 95.979,0 57.137,0 18.303,0 2.361,15.49 1.702,16.149 L 0,17.851 v 2.651 c 0,33.093 6.028,61.996 17.927,85.902 9.796,19.69 21.398,31.611 29.407,38.143 l 7.431,6.06 -0.021,-116.621 -4.965,0.272 c -9.681,0.529 -18.286,2.63 -25.18,5.233 -3.547,1.34 -6.63,2.808 -9.181,4.269 0.417,4.031 0.936,7.98 1.575,11.833 0.224,1.342 0.473,2.664 0.723,3.983 2.751,-1.205 5.826,-2.395 9.202,-3.477 -0.332,-1.782 -0.632,-3.531 -0.896,-5.233 5.35,-2.154 11.963,-3.969 19.227,-4.834 l 0.014,82.343 C 14.482,96.919 9.851,47.092 9.521,23.408 15.952,18.56 31.89,11.352 57.139,11.352 c 25.282,0 41.23,7.224 47.622,12.051 -0.327,23.684 -4.959,73.513 -35.743,104.972 l 0.016,-82.343 c 7.261,0.865 13.875,2.68 19.225,4.834 -0.265,1.697 -0.576,3.454 -0.906,5.231 3.373,1.085 6.449,2.272 9.203,3.478 0.249,-1.32 0.487,-2.651 0.711,-3.997 0.638,-3.85 1.166,-7.792 1.582,-11.823 -2.547,-1.458 -5.625,-2.927 -9.166,-4.264 -6.894,-2.604 -15.5,-4.704 -25.18,-5.233 l -4.967,-0.272 -0.021,116.621 7.429,-6.06 c 8.009,-6.534 19.613,-18.455 29.412,-38.143 11.893,-23.906 17.927,-52.809 17.927,-85.902 v -2.651 z" id="path2"></path> <polygon points="211.882,10.94 211.882,29.285 188.859,29.285 188.859,111.819 173.517,111.819 173.517,29.285 150.497,29.285 150.497,10.94 " transform="translate(-3.751,-3.949)" id="polygon2"></polygon> <path d="M 215.804,107.87 V 6.994 h 84.408 V 107.87 H 284.864 V 52.845 h -53.712 v 55.025 z m 69.058,-82.534 h -53.714 v 9.169 h 53.714 z" id="path3"></path> <polygon points="326.981,29.285 326.981,111.819 311.635,111.819 311.635,10.943 396.04,10.943 396.04,56.794 373.021,56.794 442.08,139.328 419.062,139.328 334.653,38.455 380.691,38.455 380.691,29.285 " transform="translate(-3.751,-3.949)" id="polygon3"></polygon> <polygon points="419.062,29.285 419.062,56.794 472.775,120.987 472.775,56.794 449.755,56.794 449.755,38.455 488.122,38.455 488.122,166.842 403.714,65.963 403.714,10.943 488.122,10.943 488.122,29.285 " transform="translate(-3.751,-3.949)" id="polygon4"></polygon> <path d="M 492.044,107.87 V 6.994 H 576.45 V 107.87 H 561.102 V 52.845 h -53.713 v 55.025 z m 69.059,-82.534 h -53.714 v 9.169 h 53.714 z" id="path4"></path> <path fill="#1e89ca" d="m 148.302,148.892 v -27.614 h 4.9 c 1.903,0 3.349,0.619 4.333,1.859 0.986,1.24 1.477,3 1.477,5.276 v 12.915 c 0,2.589 -0.525,4.496 -1.575,5.722 -1.048,1.227 -2.556,1.842 -4.524,1.842 z M 151.612,125 v 20.163 h 1.525 c 0.93,0 1.589,-0.278 1.978,-0.832 0.389,-0.555 0.584,-1.427 0.584,-2.619 v -13.301 c 0,-1.087 -0.185,-1.926 -0.552,-2.521 -0.368,-0.598 -1.038,-0.891 -2.012,-0.891 h -1.523 z" class=" bl-fill-0" data-color-origin="#1e89ca" data-color-type="fill" id="path5"></path> <polygon fill="#1e89ca" points="177.948,128.947 177.948,137.054 183.662,137.054 183.662,140.777 177.948,140.777 177.948,148.885 184.504,148.885 184.504,152.841 174.64,152.841 174.64,125.229 184.504,125.229 184.504,128.947 " transform="translate(-3.751,-3.949)" class=" bl-fill-0" data-color-origin="#1e89ca" data-color-type="fill" id="polygon5"></polygon> <polygon fill="#1e89ca" points="197.776,125.227 200.405,144.499 200.469,144.499 203.131,125.227 206.638,125.227 201.896,152.838 198.98,152.838 194.271,125.227 " transform="translate(-3.751,-3.949)" class=" bl-fill-0" data-color-origin="#1e89ca" data-color-type="fill" id="polygon6"></polygon> <polygon fill="#1e89ca" points="220.689,128.947 220.689,137.054 226.397,137.054 226.397,140.777 220.689,140.777 220.689,148.885 227.245,148.885 227.245,152.841 217.376,152.841 217.376,125.229 227.245,125.229 227.245,128.947 " transform="translate(-3.751,-3.949)" class=" bl-fill-0" data-color-origin="#1e89ca" data-color-type="fill" id="polygon7"></polygon> <polygon fill="#1e89ca" points="248.013,148.885 248.013,152.841 238.147,152.841 238.147,125.229 241.455,125.229 241.455,148.885 " transform="translate(-3.751,-3.949)" class=" bl-fill-0" data-color-origin="#1e89ca" data-color-type="fill" id="polygon8"></polygon> <path fill="#1e89ca" d="m 254.97,127.791 c 0,-1.109 0.159,-2.096 0.485,-2.946 0.323,-0.857 0.756,-1.566 1.298,-2.136 0.518,-0.544 1.106,-0.956 1.768,-1.241 0.659,-0.281 1.325,-0.426 1.996,-0.426 0.67,0 1.335,0.146 1.995,0.426 0.66,0.285 1.261,0.696 1.8,1.241 0.519,0.57 0.942,1.279 1.267,2.136 0.324,0.851 0.487,1.835 0.487,2.946 v 14.584 c 0,1.162 -0.163,2.156 -0.487,2.982 -0.323,0.831 -0.746,1.514 -1.267,2.058 -0.542,0.57 -1.14,0.995 -1.8,1.278 -0.659,0.283 -1.325,0.429 -1.995,0.429 -0.671,0 -1.336,-0.146 -1.996,-0.429 -0.66,-0.283 -1.25,-0.708 -1.768,-1.278 -0.542,-0.547 -0.976,-1.227 -1.298,-2.058 -0.326,-0.826 -0.485,-1.823 -0.485,-2.982 z m 3.307,14.584 c 0,0.956 0.224,1.662 0.665,2.113 0.445,0.455 0.968,0.679 1.575,0.679 0.602,0 1.127,-0.225 1.573,-0.679 0.443,-0.451 0.664,-1.157 0.664,-2.113 v -14.584 c 0,-0.956 -0.221,-1.662 -0.664,-2.113 -0.446,-0.455 -0.971,-0.68 -1.573,-0.68 -0.607,0 -1.13,0.225 -1.575,0.68 -0.441,0.451 -0.665,1.157 -0.665,2.113 z" class=" bl-fill-0" data-color-origin="#1e89ca" data-color-type="fill" id="path8"></path> <path fill="#1e89ca" d="m 277.75,148.892 v -27.614 h 4.968 c 0.908,0 1.708,0.14 2.401,0.427 0.693,0.281 1.319,0.786 1.882,1.514 0.563,0.728 0.952,1.574 1.17,2.542 0.218,0.967 0.323,2.282 0.323,3.935 0,1.239 -0.056,2.286 -0.178,3.143 -0.12,0.853 -0.375,1.651 -0.762,2.402 -0.454,0.906 -1.059,1.61 -1.817,2.113 -0.753,0.505 -1.75,0.757 -2.984,0.757 h -1.689 v 10.785 h -3.313 v -0.004 z M 281.061,125 v 9.382 h 1.593 c 0.669,0 1.187,-0.115 1.556,-0.349 0.367,-0.235 0.639,-0.559 0.811,-0.971 0.174,-0.386 0.277,-0.863 0.307,-1.433 0.033,-0.567 0.048,-1.2 0.048,-1.901 0,-0.647 -0.011,-1.265 -0.034,-1.842 -0.021,-0.582 -0.118,-1.094 -0.292,-1.528 -0.172,-0.442 -0.431,-0.778 -0.777,-1.007 -0.346,-0.238 -0.844,-0.351 -1.495,-0.351 z" class=" bl-fill-0" data-color-origin="#1e89ca" data-color-type="fill" id="path9"></path> <polygon fill="#1e89ca" points="310.97,139.848 315.187,125.229 318.399,125.229 318.399,152.841 315.09,152.841 315.09,136.046 315.026,136.046 311.747,147.913 310.092,147.913 306.847,136.046 306.781,136.046 306.781,152.841 303.472,152.841 303.472,125.229 306.651,125.229 310.904,139.848 " transform="translate(-3.751,-3.949)" class=" bl-fill-0" data-color-origin="#1e89ca" data-color-type="fill" id="polygon9"></polygon> <polygon fill="#1e89ca" points="333.585,128.947 333.585,137.054 339.297,137.054 339.297,140.777 333.585,140.777 333.585,148.885 340.142,148.885 340.142,152.841 330.274,152.841 330.274,125.229 340.142,125.229 340.142,128.947 " transform="translate(-3.751,-3.949)" class=" bl-fill-0" data-color-origin="#1e89ca" data-color-type="fill" id="polygon10"></polygon> <polygon fill="#1e89ca" points="359.156,141.864 359.156,125.229 362.469,125.229 362.469,152.841 359.353,152.841 354.29,136.238 354.228,136.238 354.228,152.841 350.917,152.841 350.917,125.229 354.094,125.229 359.092,141.864 " transform="translate(-3.751,-3.949)" class=" bl-fill-0" data-color-origin="#1e89ca" data-color-type="fill" id="polygon11"></polygon> <polygon fill="#1e89ca" points="383.527,125.229 383.527,128.947 379.701,128.947 379.701,152.841 376.39,152.841 376.39,128.947 372.559,128.947 372.559,125.229 " transform="translate(-3.751,-3.949)" class=" bl-fill-0" data-color-origin="#1e89ca" data-color-type="fill" id="polygon12"></polygon> </svg> 